<mxfile host="65bd71144e">
    <diagram id="Spl0SQgATVUhrPXTgHif" name="Page-1">
        <mxGraphModel dx="633" dy="537" grid="1" gridSize="10" guides="1" tooltips="1" connect="1" arrows="1" fold="1" page="1" pageScale="1" pageWidth="850" pageHeight="1100" math="0" shadow="0">
            <root>
                <mxCell id="0"/>
                <mxCell id="1" parent="0"/>
                <mxCell id="2" value="" style="whiteSpace=wrap;html=1;aspect=fixed;" vertex="1" parent="1">
                    <mxGeometry x="220" y="40" width="90" height="90" as="geometry"/>
                </mxCell>
                <mxCell id="3" value="Queue" style="text;html=1;strokeColor=none;fillColor=none;align=center;verticalAlign=middle;whiteSpace=wrap;rounded=0;" vertex="1" parent="1">
                    <mxGeometry x="235" y="70" width="60" height="30" as="geometry"/>
                </mxCell>
                <mxCell id="22" style="edgeStyle=none;html=1;entryX=0.5;entryY=1;entryDx=0;entryDy=0;" edge="1" parent="1" source="6" target="16">
                    <mxGeometry relative="1" as="geometry">
                        <mxPoint x="190" y="460" as="targetPoint"/>
                        <Array as="points">
                            <mxPoint x="500" y="70"/>
                            <mxPoint x="640" y="80"/>
                            <mxPoint x="640" y="460"/>
                            <mxPoint x="190" y="460"/>
                        </Array>
                    </mxGeometry>
                </mxCell>
                <mxCell id="6" value="queue_id*&lt;br&gt;customer_id&lt;br&gt;customer_name&lt;br&gt;customer_services_id&lt;br&gt;estimated_time&lt;br&gt;pending_pay&lt;br&gt;estimated_pay&lt;br&gt;status&lt;br&gt;estimated_waiting_time" style="text;html=1;strokeColor=none;fillColor=none;align=center;verticalAlign=middle;whiteSpace=wrap;rounded=0;" vertex="1" parent="1">
                    <mxGeometry x="325" y="22.5" width="205" height="147.5" as="geometry"/>
                </mxCell>
                <mxCell id="7" value="customer" style="whiteSpace=wrap;html=1;aspect=fixed;" vertex="1" parent="1">
                    <mxGeometry x="40" y="255" width="80" height="80" as="geometry"/>
                </mxCell>
                <mxCell id="17" style="edgeStyle=none;html=1;entryX=0;entryY=0.75;entryDx=0;entryDy=0;" edge="1" parent="1" source="9" target="13">
                    <mxGeometry relative="1" as="geometry"/>
                </mxCell>
                <mxCell id="19" style="edgeStyle=none;html=1;entryX=0;entryY=0.5;entryDx=0;entryDy=0;" edge="1" parent="1" source="9" target="2">
                    <mxGeometry relative="1" as="geometry"/>
                </mxCell>
                <mxCell id="9" value="customer_id*&lt;br&gt;customer_name&lt;br&gt;pending_pay&lt;br&gt;customer_services_id&lt;br&gt;estimated_pay&lt;br&gt;email&lt;br&gt;phone&lt;br&gt;password" style="text;html=1;strokeColor=none;fillColor=none;align=center;verticalAlign=middle;whiteSpace=wrap;rounded=0;" vertex="1" parent="1">
                    <mxGeometry x="160" y="240" width="120" height="110" as="geometry"/>
                </mxCell>
                <mxCell id="10" value="Barber" style="whiteSpace=wrap;html=1;aspect=fixed;" vertex="1" parent="1">
                    <mxGeometry x="345" y="200" width="80" height="80" as="geometry"/>
                </mxCell>
                <mxCell id="11" value="barber_id*&lt;br&gt;barber_code&lt;br&gt;password&lt;br&gt;barber_name&lt;br&gt;barber_email&lt;br&gt;barber_phone&lt;br&gt;wallet_money" style="text;html=1;strokeColor=none;fillColor=none;align=center;verticalAlign=middle;whiteSpace=wrap;rounded=0;" vertex="1" parent="1">
                    <mxGeometry x="440" y="170" width="90" height="120" as="geometry"/>
                </mxCell>
                <mxCell id="18" style="edgeStyle=none;html=1;entryX=1;entryY=0.5;entryDx=0;entryDy=0;" edge="1" parent="1" source="13" target="9">
                    <mxGeometry relative="1" as="geometry"/>
                </mxCell>
                <mxCell id="26" style="edgeStyle=none;html=1;entryX=0.75;entryY=0;entryDx=0;entryDy=0;" edge="1" parent="1" source="13" target="25">
                    <mxGeometry relative="1" as="geometry"/>
                </mxCell>
                <mxCell id="13" value="Services" style="whiteSpace=wrap;html=1;aspect=fixed;" vertex="1" parent="1">
                    <mxGeometry x="360" y="319" width="80" height="80" as="geometry"/>
                </mxCell>
                <mxCell id="14" value="service_id*&lt;br&gt;service_name&lt;br&gt;service_price&lt;br&gt;estimated_time" style="text;html=1;strokeColor=none;fillColor=none;align=center;verticalAlign=middle;whiteSpace=wrap;rounded=0;" vertex="1" parent="1">
                    <mxGeometry x="443" y="319" width="107" height="80" as="geometry"/>
                </mxCell>
                <mxCell id="15" value="Transections" style="whiteSpace=wrap;html=1;aspect=fixed;" vertex="1" parent="1">
                    <mxGeometry x="40" y="399" width="80" height="80" as="geometry"/>
                </mxCell>
                <mxCell id="16" value="trans_id*&lt;br&gt;customer_id&lt;br&gt;barber_id&lt;br&gt;Time&lt;br&gt;Date&lt;br&gt;status&lt;br&gt;customer_name&lt;br&gt;customer_phone&lt;br&gt;customer_email" style="text;html=1;strokeColor=none;fillColor=none;align=center;verticalAlign=middle;whiteSpace=wrap;rounded=0;" vertex="1" parent="1">
                    <mxGeometry x="130" y="360" width="120" height="150" as="geometry"/>
                </mxCell>
                <mxCell id="23" style="edgeStyle=none;html=1;exitX=1;exitY=0.5;exitDx=0;exitDy=0;entryX=1.016;entryY=0.401;entryDx=0;entryDy=0;entryPerimeter=0;" edge="1" parent="1" source="6" target="6">
                    <mxGeometry relative="1" as="geometry"/>
                </mxCell>
                <mxCell id="24" value="customer_services" style="whiteSpace=wrap;html=1;aspect=fixed;" vertex="1" parent="1">
                    <mxGeometry x="40" y="560" width="110" height="110" as="geometry"/>
                </mxCell>
                <mxCell id="25" value="customer_services_id*&lt;br&gt;service_id*&lt;br&gt;customer_id&lt;br&gt;estimated_time&lt;br&gt;service_price" style="text;html=1;strokeColor=none;fillColor=none;align=center;verticalAlign=middle;whiteSpace=wrap;rounded=0;" vertex="1" parent="1">
                    <mxGeometry x="175" y="570" width="135" height="80" as="geometry"/>
                </mxCell>
            </root>
        </mxGraphModel>
    </diagram>
</mxfile>